<?xml version="1.0" encoding="UTF-8" standalone="no"?>
<!-- Created with Inkscape (http://www.inkscape.org/) -->

<svg
   xmlns:dc="http://purl.org/dc/elements/1.1/"
   xmlns:cc="http://creativecommons.org/ns#"
   xmlns:rdf="http://www.w3.org/1999/02/22-rdf-syntax-ns#"
   xmlns:svg="http://www.w3.org/2000/svg"
   xmlns="http://www.w3.org/2000/svg"
   xmlns:xlink="http://www.w3.org/1999/xlink"
   xmlns:sodipodi="http://sodipodi.sourceforge.net/DTD/sodipodi-0.dtd"
   xmlns:inkscape="http://www.inkscape.org/namespaces/inkscape"
   width="256"
   height="256"
   viewBox="0 0 67.733332 67.733336"
   version="1.1"
   id="svg8"
   inkscape:version="0.92.1 r15371"
   sodipodi:docname="ampnetstack.svg"
   inkscape:export-filename="C:\Users\nnessen\ampnet.png"
   inkscape:export-xdpi="96"
   inkscape:export-ydpi="96">
  <defs
     id="defs2">
    <linearGradient
       id="linearGradient4751"
       inkscape:collect="always">
      <stop
         id="stop4747"
         offset="0"
         style="stop-color:#ff0000;stop-opacity:1" />
      <stop
         id="stop4749"
         offset="1"
         style="stop-color:#800000;stop-opacity:1" />
    </linearGradient>
    <linearGradient
       inkscape:collect="always"
       id="linearGradient4739">
      <stop
         style="stop-color:#800000;stop-opacity:1;"
         offset="0"
         id="stop4735" />
      <stop
         style="stop-color:#800000;stop-opacity:0;"
         offset="1"
         id="stop4737" />
    </linearGradient>
    <linearGradient
       inkscape:collect="always"
       xlink:href="#linearGradient4739"
       id="linearGradient4741"
       x1="33.560742"
       y1="264.13034"
       x2="39.161652"
       y2="264.13034"
       gradientUnits="userSpaceOnUse" />
    <linearGradient
       inkscape:collect="always"
       xlink:href="#linearGradient4751"
       id="linearGradient4745"
       gradientUnits="userSpaceOnUse"
       x1="136.92969"
       y1="110.375"
       x2="131.375"
       y2="133.75002" />
  </defs>
  <sodipodi:namedview
     id="base"
     pagecolor="#ffffff"
     bordercolor="#666666"
     borderopacity="1.0"
     inkscape:pageopacity="0.0"
     inkscape:pageshadow="2"
     inkscape:zoom="0.70710678"
     inkscape:cx="186.21909"
     inkscape:cy="199.74551"
     inkscape:document-units="mm"
     inkscape:current-layer="layer1"
     showgrid="false"
     units="px"
     inkscape:window-width="1850"
     inkscape:window-height="1057"
     inkscape:window-x="62"
     inkscape:window-y="-8"
     inkscape:window-maximized="1" />
  <metadata
     id="metadata5">
    <rdf:RDF>
      <cc:Work
         rdf:about="">
        <dc:format>image/svg+xml</dc:format>
        <dc:type
           rdf:resource="http://purl.org/dc/dcmitype/StillImage" />
        <dc:title></dc:title>
      </cc:Work>
    </rdf:RDF>
  </metadata>
  <g
     inkscape:label="Layer 1"
     inkscape:groupmode="layer"
     id="layer1"
     transform="translate(0,-229.26665)">
    <path
       inkscape:connector-curvature="0"
       id="path4527"
       style="font-style:normal;font-variant:normal;font-weight:normal;font-stretch:normal;font-size:medium;line-height:1.25;font-family:'Bauhaus 93';-inkscape-font-specification:'Bauhaus 93, ';letter-spacing:0px;word-spacing:0px;fill:#000000;fill-opacity:1;stroke:none;stroke-width:0.26458332"
       d="m 59.343804,268.81264 v 14.61104 H 53.247103 V 268.81264 H 48.57697 v -5.88648 h 15.421949 v 5.88648 z" />
    <path
       sodipodi:nodetypes="cscscsccssccc"
       inkscape:connector-curvature="0"
       id="path4523"
       style="font-style:normal;font-variant:normal;font-weight:normal;font-stretch:normal;font-size:medium;line-height:1.25;font-family:'Bauhaus 93';-inkscape-font-specification:'Bauhaus 93, ';letter-spacing:0px;word-spacing:0px;fill:#000000;fill-opacity:1;stroke:none;stroke-width:0.26458332"
       d="m 18.24246,283.42354 v -13.3046 c 0,-2.33255 0.07951,-7.60894 0.07951,-7.60894 0,0 5.271376,-0.0944 7.593927,-0.0944 2.31254,0 4.079481,0.68077 5.300823,2.04225 1.231353,1.36147 1.84703,3.31865 1.84703,5.87147 v 13.09436 h -6.096698 v -13.09436 c 0,-1.25138 -0.445489,-1.87707 -1.33647,-1.87707 -0.860947,0 -1.132911,-0.0251 -1.132911,-0.0251 l -0.158514,14.99648 z" />
    <g
       id="g4562"
       transform="matrix(2.0747902,0,0,2.0747902,-66.137489,-272.97311)"
       style="fill:url(#linearGradient4741);fill-opacity:1;stroke:none;stroke-width:0.48197645">
      <path
         style="fill:url(#linearGradient4745);fill-opacity:1;stroke:none;stroke-width:2.40988207;stroke-miterlimit:4;stroke-dasharray:none;stroke-dashoffset:17;stroke-opacity:1"
         d="m 136.92969,110.375 c 0,0 -0.93305,6.84469 -2.79688,9.27734 -1.57375,2.05405 -2.68337,2.4887 -3.27929,2.94336 a 10.497587,10.497587 0 0 0 -4.88477,8.86719 10.497587,10.497587 0 0 0 5.94336,9.44922 c 1.10717,-0.0159 2.36876,-0.29262 3.80859,-1.01758 6.53961,-3.29284 6.06446,-8.66015 6.06446,-8.66015 0,0 2.18426,4.47332 0.0254,9.24609 a 10.497587,10.497587 0 0 0 5.10937,-8.13867 c 6.4e-4,-0.004 0.001,-0.0114 0.002,-0.0156 0.19751,-1.30534 0.30116,-3.51893 0.12695,-7.27148 -0.32357,-6.96979 -2.64258,-12.00196 -2.64258,-12.00196 0,0 -0.70974,3.63294 -2.2168,6.43165 z"
         transform="matrix(0.26458333,0,0,0.26458333,0.23151042,230.88715)"
         id="path4503"
         inkscape:connector-curvature="0" />
    </g>
    <path
       sodipodi:nodetypes="ccscscccscscccscsccsccc"
       inkscape:connector-curvature="0"
       id="path4532"
       style="font-style:normal;font-variant:normal;font-weight:normal;font-stretch:normal;font-size:medium;line-height:1.25;font-family:'Bauhaus 93';-inkscape-font-specification:'Bauhaus 93, ';letter-spacing:0px;word-spacing:0px;fill:#000000;fill-opacity:1;stroke:none;stroke-width:0.26458332"
       d="m 46.799721,258.23255 h -5.616173 v -8.07888 c 0,-0.62069 -0.06507,-1.05115 -0.195196,-1.29141 -0.130152,-0.24032 -0.3654,-0.36043 -0.705773,-0.36043 -0.630695,0 -0.889996,-0.0332 -0.889996,-0.0332 l -0.05606,9.76382 h -5.61616 v -8.07888 c 0,-0.62069 -0.07009,-1.05117 -0.210231,-1.29145 -0.130151,-0.24031 -0.365401,-0.36039 -0.705775,-0.36039 -0.620681,0 -0.87498,-0.0332 -0.87498,-0.0332 l -0.05606,9.7638 -5.616067,1.1e-4 -1.04e-4,-9.22025 c -1.9e-5,-1.68185 1.04e-4,-6.05309 1.04e-4,-6.05309 l 5.811275,0 c 1.661822,0 3.153461,0.70096 4.474914,2.10248 -0.692549,-0.87013 -0.637671,-1.22908 -0.620236,-2.10248 0.819025,0.0145 4.290685,7.2e-4 5.034987,7.2e-4 1.872058,0 3.373706,0.68078 4.50495,2.04226 0.890977,1.06115 1.336468,2.60786 1.336468,4.6401 z" />
    <path
       style="font-style:normal;font-variant:normal;font-weight:normal;font-stretch:normal;font-size:medium;line-height:1.25;font-family:'Bauhaus 93';-inkscape-font-specification:'Bauhaus 93, ';letter-spacing:0px;word-spacing:0px;fill:#000000;fill-opacity:1;stroke:none;stroke-width:0.26458332"
       d="m 48.58237,242.96043 c 0,0 -0.0054,6.02651 -0.0054,8.31905 v 12.49407 h 5.616067 l 0.04853,-15.26799 c 0,0 0.672475,-0.004 2.114058,-0.004 0.600662,0 1.116685,0.20993 1.547152,0.63043 0.430469,0.41043 0.645451,0.91148 0.645451,1.50213 6e-6,0.59065 -0.209975,1.10059 -0.630436,1.53107 -0.410453,0.43039 -0.561044,0.54216 -1.132221,0.64652 -0.357764,0.0656 -0.554988,0.0973 -1.698328,0.0975 l -0.03755,5.53353 h 2.738341 c 1.566174,-0.25047 2.957559,-0.98061 4.168627,-2.20762 1.521674,-1.5417 2.282663,-3.37365 2.282663,-5.496 0,-2.18241 -0.765989,-4.02432 -2.297672,-5.52599 -1.531683,-1.50165 -3.413632,-2.2527 -5.646089,-2.2527 -2.60136,0.0218 -2.62329,0.0659 -7.713247,0 z"
       id="path4534"
       inkscape:connector-curvature="0"
       sodipodi:nodetypes="cscccsccccccccscccc" />
    <g
       aria-label="a"
       style="font-style:normal;font-weight:normal;font-size:13.6286602px;line-height:1.25;font-family:sans-serif;letter-spacing:0px;word-spacing:0px;fill:#000000;fill-opacity:1;stroke:none;stroke-width:0.1171078"
       id="text4539"
       transform="matrix(2.2593142,0,0,2.2593142,-6.5662792,-363.94501)">
      <path
         style="font-style:normal;font-variant:normal;font-weight:normal;font-stretch:normal;font-family:'Bauhaus 93';-inkscape-font-specification:'Bauhaus 93, ';stroke-width:0.44261217"
         d="m 38.333984,148.63281 c -3.638556,0 -13.029296,2.3e-4 -13.029296,2.3e-4 0,0 -0.04883,9.41395 -0.04883,13.05253 0,3.73916 1.258306,6.85044 3.773438,9.33203 1.568912,1.54799 3.383189,2.61148 5.441406,3.19336 h 6.103516 V 165.459 h -2.22461 v -0.004 c -0.02177,3.1e-4 -0.0426,0.004 -0.06445,0.004 -1.006052,0 -1.8363,-0.33514 -2.490234,-1.00586 -0.653934,-0.67067 -0.980469,-1.5268 -0.980469,-2.5664 0,-0.98928 0.04696,-3.59757 0.04696,-3.59757 0,0 2.610238,-0.0489 3.599525,-0.0489 1.089888,0 1.952678,0.39356 2.589843,1.18165 0.653937,0.78807 0.980469,1.84529 0.980469,3.16992 v 11.61914 h 9.408203 v -12.29883 c 0,-4.10804 -1.174027,-7.34474 -3.521484,-9.70899 -2.330689,-2.38096 -5.526238,-3.57031 -9.583985,-3.57031 z"
         transform="matrix(0.26458333,0,0,0.26458333,0,229.26665)"
         id="path4541"
         inkscape:connector-curvature="0"
         sodipodi:nodetypes="ccsscccccscscscsccscsc" />
    </g>
    <g
       id="g4825">
      <rect
         y="270.29987"
         x="35.167931"
         height="5.8465209"
         width="11.773959"
         id="rect4787"
         style="fill:#000000;stroke:none;stroke-width:1.32291663;stroke-miterlimit:4;stroke-dasharray:none;stroke-dashoffset:17;stroke-opacity:1" />
      <path
         inkscape:connector-curvature="0"
         id="rect4787-8"
         d="M 35.167931,262.92599 H 46.94189 v 5.84653 H 35.167931 Z"
         style="fill:#000000;stroke:none;stroke-width:1.32291663;stroke-miterlimit:4;stroke-dasharray:none;stroke-dashoffset:17;stroke-opacity:1" />
      <rect
         y="277.57706"
         x="35.167931"
         height="5.8465214"
         width="11.773959"
         id="rect4787-1"
         style="fill:#000000;stroke:none;stroke-width:1.32291663;stroke-miterlimit:4;stroke-dasharray:none;stroke-dashoffset:17;stroke-opacity:1" />
      <rect
         style="fill:#000000;stroke:none;stroke-width:1.32291663;stroke-miterlimit:4;stroke-dasharray:none;stroke-dashoffset:17;stroke-opacity:1"
         id="rect4818"
         width="5.846498"
         height="20.497536"
         x="35.167931"
         y="262.92606" />
    </g>
  </g>
</svg>
